<svg xmlns="http://www.w3.org/2000/svg" width="287.95172119140625" height="284.4114685058594" viewBox="-47.750701904296875 -41.43976593017578 287.95172119140625 284.4114685058594"><title>Neo4j Graph Visualization</title><desc>Created using Neo4j (http://www.neo4j.com/)</desc><g class="layer relationships"><g class="relationship" transform="translate(155.2991692280774 205.46411711692977) rotate(238.46684869035204)"><path class="outline" fill="#A5ABB6" stroke="none" d="M 25 0.5 L 31.748033066089626 0.5 L 31.748033066089626 -0.5 L 25 -0.5 Z M 78.63865806608962 0.5 L 85.38669113217925 0.5 L 85.38669113217925 3.5 L 92.38669113217925 0 L 85.38669113217925 -3.5 L 85.38669113217925 -0.5 L 78.63865806608962 -0.5 Z"/><text text-anchor="middle" pointer-events="none" font-size="8px" fill="#000000" x="55.193345566089626" y="3" transform="rotate(180 55.193345566089626 0)" font-family="sans-serif">DIRECTED</text></g><g class="relationship" transform="translate(211.2010297806199 117.12653801206513) rotate(185.7038751646637)"><path class="outline" fill="#A5ABB6" stroke="none" d="M 25 0.5 L 32.65763481185524 0.5 L 32.65763481185524 -0.5 L 25 -0.5 Z M 78.22013481185525 0.5 L 85.87776962371048 0.5 L 85.87776962371048 3.5 L 92.87776962371048 0 L 85.87776962371048 -3.5 L 85.87776962371048 -0.5 L 78.22013481185525 -0.5 Z"/><text text-anchor="middle" pointer-events="none" font-size="8px" fill="#000000" x="55.43888481185524" y="3" transform="rotate(180 55.43888481185524 0)" font-family="sans-serif">ACTED_IN</text></g><g class="relationship" transform="translate(180.99689382964775 27.513051607557433) rotate(498.188846022074)"><path class="outline" fill="#A5ABB6" stroke="none" d="M 25 0.5 L 32.141265446758844 0.5 L 32.141265446758844 -0.5 L 25 -0.5 Z M 77.70376544675884 0.5 L 84.84503089351769 0.5 L 84.84503089351769 3.5 L 91.84503089351769 0 L 84.84503089351769 -3.5 L 84.84503089351769 -0.5 L 77.70376544675884 -0.5 Z"/><text text-anchor="middle" pointer-events="none" font-size="8px" fill="#000000" x="54.922515446758844" y="3" transform="rotate(180 54.922515446758844 0)" font-family="sans-serif">ACTED_IN</text></g><g class="relationship" transform="translate(95.27883106936936 -12.439763669714058) rotate(450.66696925322526)"><path class="outline" fill="#A5ABB6" stroke="none" d="M 25 0.5 L 37.54266289883825 0.5 L 37.54266289883825 -0.5 L 25 -0.5 Z M 73.31610039883824 0.5 L 85.8587632976765 0.5 L 85.8587632976765 3.5 L 92.8587632976765 0 L 85.8587632976765 -3.5 L 85.8587632976765 -0.5 L 73.31610039883824 -0.5 Z"/><text text-anchor="middle" pointer-events="none" font-size="8px" fill="#000000" x="55.42938164883825" y="3" transform="rotate(180 55.42938164883825 0)" font-family="sans-serif">WROTE</text></g><g class="relationship" transform="translate(1.2767041804335049 33.347482667675266) rotate(397.8818550926359)"><path class="outline" fill="#A5ABB6" stroke="none" d="M 25 0.5 L 37.293567621139616 0.5 L 37.293567621139616 -0.5 L 25 -0.5 Z M 73.06700512113962 0.5 L 85.36057274227923 0.5 L 85.36057274227923 3.5 L 92.36057274227923 0 L 85.36057274227923 -3.5 L 85.36057274227923 -0.5 L 73.06700512113962 -0.5 Z"/><text text-anchor="middle" pointer-events="none" font-size="8px" fill="#000000" x="55.180286371139616" y="3" font-family="sans-serif">WROTE</text></g><g class="relationship" transform="translate(-18.75069868287409 136.46212614390683) rotate(344.59052631027)"><path class="outline" fill="#A5ABB6" stroke="none" d="M 25 0.5 L 37.04252046457474 0.5 L 37.04252046457474 -0.5 L 25 -0.5 Z M 72.81595796457475 0.5 L 84.85847842914949 0.5 L 84.85847842914949 3.5 L 91.85847842914949 0 L 84.85847842914949 -3.5 L 84.85847842914949 -0.5 L 72.81595796457475 -0.5 Z"/><text text-anchor="middle" pointer-events="none" font-size="8px" fill="#000000" x="54.92923921457474" y="3" font-family="sans-serif">WROTE</text></g><g class="relationship" transform="translate(50.62681771710321 213.97169261219045) rotate(291.73577209516566)"><path class="outline" fill="#A5ABB6" stroke="none" d="M 25 0.5 L 32.153725807853526 0.5 L 32.153725807853526 -0.5 L 25 -0.5 Z M 77.71622580785353 0.5 L 84.86995161570705 0.5 L 84.86995161570705 3.5 L 91.86995161570705 0 L 84.86995161570705 -3.5 L 84.86995161570705 -0.5 L 77.71622580785353 -0.5 Z"/><text text-anchor="middle" pointer-events="none" font-size="8px" fill="#000000" x="54.934975807853526" y="3" font-family="sans-serif">ACTED_IN</text></g></g><g class="layer nodes"><g class="node" transform="translate(93.90689064587616,105.41101428924608)"><circle class="outline" cx="0" cy="0" r="25" fill="#F79767" stroke="#f36924" stroke-width="2px"/><text text-anchor="middle" pointer-events="none" font-family="sans-serif" dy="1.5625" font-size="25" fill="#FFFFFF"/><text text-anchor="middle" pointer-events="none" font-family="sans-serif" dy="1.5625" font-size="25" fill="#FFFFFF"/><text text-anchor="middle" pointer-events="none" x="0" y="0" font-size="10px" fill="#FFFFFF" font-family="sans-serif"> Captain</text><text text-anchor="middle" pointer-events="none" x="0" y="10" font-size="10px" fill="#FFFFFF" font-family="sans-serif"> Americ…</text></g><g class="node" transform="translate(155.2991692280774,205.46411711692977)"><circle class="outline" cx="0" cy="0" r="25" fill="#57C7E3" stroke="#23b3d7" stroke-width="2px"/><text text-anchor="middle" pointer-events="none" font-family="sans-serif" dy="1.5625" font-size="25" fill="#2A2C34"/><text text-anchor="middle" pointer-events="none" font-family="sans-serif" dy="1.5625" font-size="25" fill="#2A2C34"/><text text-anchor="middle" pointer-events="none" x="0" y="0" font-size="10px" fill="#2A2C34" font-family="sans-serif"> Joe</text><text text-anchor="middle" pointer-events="none" x="0" y="10" font-size="10px" fill="#2A2C34" font-family="sans-serif"> Johnston</text></g><g class="node" transform="translate(211.2010297806199,117.12653801206513)"><circle class="outline" cx="0" cy="0" r="25" fill="#57C7E3" stroke="#23b3d7" stroke-width="2px"/><text text-anchor="middle" pointer-events="none" font-family="sans-serif" dy="1.5625" font-size="25" fill="#2A2C34"/><text text-anchor="middle" pointer-events="none" font-family="sans-serif" dy="1.5625" font-size="25" fill="#2A2C34"/><text text-anchor="middle" pointer-events="none" font-family="sans-serif" dy="1.5625" font-size="25" fill="#2A2C34"/><text text-anchor="middle" pointer-events="none" x="0" y="-5" font-size="10px" fill="#2A2C34" font-family="sans-serif"> Samuel</text><text text-anchor="middle" pointer-events="none" x="0" y="5" font-size="10px" fill="#2A2C34" font-family="sans-serif"> L.</text><text text-anchor="middle" pointer-events="none" x="0" y="15" font-size="10px" fill="#2A2C34" font-family="sans-serif"> Jackson</text></g><g class="node" transform="translate(180.99689382964775,27.513051607557433)"><circle class="outline" cx="0" cy="0" r="25" fill="#57C7E3" stroke="#23b3d7" stroke-width="2px"/><text text-anchor="middle" pointer-events="none" font-family="sans-serif" dy="1.5625" font-size="25" fill="#2A2C34"/><text text-anchor="middle" pointer-events="none" font-family="sans-serif" dy="1.5625" font-size="25" fill="#2A2C34"/><text text-anchor="middle" pointer-events="none" x="0" y="0" font-size="10px" fill="#2A2C34" font-family="sans-serif"> Chris</text><text text-anchor="middle" pointer-events="none" x="0" y="10" font-size="10px" fill="#2A2C34" font-family="sans-serif"> Evans</text></g><g class="node" transform="translate(95.27883106936936,-12.439763669714058)"><circle class="outline" cx="0" cy="0" r="25" fill="#57C7E3" stroke="#23b3d7" stroke-width="2px"/><text text-anchor="middle" pointer-events="none" font-family="sans-serif" dy="1.5625" font-size="25" fill="#2A2C34"/><text text-anchor="middle" pointer-events="none" font-family="sans-serif" dy="1.5625" font-size="25" fill="#2A2C34"/><text text-anchor="middle" pointer-events="none" x="0" y="0" font-size="10px" fill="#2A2C34" font-family="sans-serif"> Joe</text><text text-anchor="middle" pointer-events="none" x="0" y="10" font-size="10px" fill="#2A2C34" font-family="sans-serif"> Simonn</text></g><g class="node" transform="translate(1.2767041804335049,33.347482667675266)"><circle class="outline" cx="0" cy="0" r="25" fill="#57C7E3" stroke="#23b3d7" stroke-width="2px"/><text text-anchor="middle" pointer-events="none" font-family="sans-serif" dy="1.5625" font-size="25" fill="#2A2C34"/><text text-anchor="middle" pointer-events="none" x="0" y="5" font-size="10px" fill="#2A2C34" font-family="sans-serif"> Christop…</text></g><g class="node" transform="translate(-18.75069868287409,136.46212614390683)"><circle class="outline" cx="0" cy="0" r="25" fill="#57C7E3" stroke="#23b3d7" stroke-width="2px"/><text text-anchor="middle" pointer-events="none" font-family="sans-serif" dy="1.5625" font-size="25" fill="#2A2C34"/><text text-anchor="middle" pointer-events="none" font-family="sans-serif" dy="1.5625" font-size="25" fill="#2A2C34"/><text text-anchor="middle" pointer-events="none" x="0" y="0" font-size="10px" fill="#2A2C34" font-family="sans-serif"> Stephen</text><text text-anchor="middle" pointer-events="none" x="0" y="10" font-size="10px" fill="#2A2C34" font-family="sans-serif"> McFeely</text></g><g class="node" transform="translate(50.62681771710321,213.97169261219045)"><circle class="outline" cx="0" cy="0" r="25" fill="#57C7E3" stroke="#23b3d7" stroke-width="2px"/><text text-anchor="middle" pointer-events="none" font-family="sans-serif" dy="1.5625" font-size="25" fill="#2A2C34"/><text text-anchor="middle" pointer-events="none" font-family="sans-serif" dy="1.5625" font-size="25" fill="#2A2C34"/><text text-anchor="middle" pointer-events="none" x="0" y="0" font-size="10px" fill="#2A2C34" font-family="sans-serif"> Hugo</text><text text-anchor="middle" pointer-events="none" x="0" y="10" font-size="10px" fill="#2A2C34" font-family="sans-serif"> Weaving</text></g></g></svg>